<svg width="107" height="26" viewBox="0 0 107 26" fill="none" xmlns="http://www.w3.org/2000/svg">
    <path d="M46.5124 12.3648C48.2794 11.6686 49.5197 10.2763 49.8765 8.53593C50.3353 6.37785 49.6047 4.16755 48.0415 2.93187C45.8158 1.17408 42.7235 1.24369 39.9881 1.31331C39.4614 1.33071 38.9686 1.33071 38.4929 1.33071H34.3472C34.1773 1.33071 34.0244 1.46994 34.0244 1.66139V24.2865C34.0244 24.4605 34.1603 24.6172 34.3472 24.6172C35.2477 24.6172 36.1652 24.6346 37.0657 24.6346C37.9662 24.652 38.8667 24.652 39.7842 24.652C40.8716 24.652 41.976 24.6346 43.0633 24.5823C44.7454 24.5127 47.175 24.2343 48.925 22.8071C50.6241 21.4148 51.3207 18.8391 50.6581 16.4025C50.1484 14.4881 48.6872 13.061 46.5124 12.3648ZM37.4225 2.75783C38.9686 2.75783 40.5148 2.75783 42.0609 2.75783C43.709 2.75783 45.5609 2.89706 46.9711 3.90649C48.6702 5.12477 49.1289 7.77016 47.9566 9.54536C46.8862 11.1639 44.7454 11.5816 42.8085 11.7034H40.8376C40.7526 11.7034 40.6847 11.7034 40.6167 11.7034C40.6167 11.7034 38.6118 11.7034 37.0657 11.7034H35.4856L35.4686 2.75783H37.4225ZM48.3474 21.4148C46.8012 23.0508 44.2357 23.1726 41.959 23.1726C39.3424 23.1726 36.3011 23.1726 35.4686 23.19C35.4686 21.9021 35.4686 14.3662 35.4686 13.1132H35.9953H40.4468C40.5657 13.1132 40.9395 13.1132 41.3813 13.1132H42.9104C44.6435 13.2002 46.4954 13.4786 47.7697 14.4533C48.7382 15.1842 49.3668 16.4721 49.4687 17.8644C49.5877 19.2568 49.1799 20.5446 48.3474 21.4148Z" fill="white" stroke="white" stroke-width="0.2"/>
    <path d="M65.3039 15.01C67.1049 14.8012 68.583 14.2269 69.7384 13.3045C71.1996 12.121 71.9981 10.3632 72.0321 8.20511C71.9811 4.5851 69.5005 1.99191 65.5757 1.43499C63.9276 1.20873 62.2116 1.24354 60.5465 1.27835C59.9179 1.29575 59.2553 1.31316 58.6266 1.31316H55.6363C55.4664 1.31316 55.3135 1.45239 55.3135 1.64383V24.2689C55.3135 24.443 55.4494 24.5996 55.6363 24.5996H56.4179C56.5878 24.5996 56.7407 24.4604 56.7407 24.2689C56.7407 22.2501 56.7577 16.2109 56.7577 15.0971C57.7261 15.0797 62.6364 15.0274 63.5369 15.0623C63.5708 15.0971 63.6048 15.1319 63.6388 15.1667C63.6728 15.2015 63.7238 15.2537 63.7577 15.2885L71.2845 23.8164C71.3355 23.8686 71.3865 23.9383 71.4374 24.0079C71.5734 24.1819 71.7263 24.3908 71.8962 24.4952C72.0491 24.5996 72.253 24.617 72.4569 24.617C72.5758 24.617 72.6947 24.5996 72.8137 24.5996C72.9156 24.5996 73.0006 24.5822 73.0855 24.5822C73.2044 24.5822 73.3234 24.5126 73.3743 24.3908C73.4253 24.2689 73.4083 24.1297 73.3234 24.0253L65.3039 15.01ZM56.7407 13.6873C56.7407 11.129 56.7577 3.97596 56.7577 2.77509C57.6921 2.77509 62.1776 2.75768 63.5539 2.75768C65.6437 2.75768 67.1219 3.10576 68.3282 3.87153C70.418 5.19423 71.2166 8.13549 70.1292 10.5372C68.9738 13.113 65.8985 13.5829 64.6412 13.6525C62.2626 13.8092 57.6752 13.7048 56.7407 13.6873Z" fill="white" stroke="white" stroke-width="0.2"/>
    <path d="M77.9447 1.33105H77.1631C76.9932 1.33105 76.8403 1.47029 76.8403 1.66173V24.2868C76.8403 24.3564 76.8573 24.4261 76.9083 24.4957C76.9083 24.4957 76.9253 24.5131 76.9253 24.5305L76.9423 24.5479C76.9932 24.6001 77.0612 24.6175 77.1462 24.6175H77.9277C78.0976 24.6175 78.2505 24.4783 78.2505 24.2868V1.64433C78.2675 1.47029 78.1146 1.33105 77.9447 1.33105Z" fill="white" stroke="white" stroke-width="0.2"/>
    <path d="M105.843 10.9376C105.418 8.25743 104.195 5.82089 102.377 4.06309C100.321 2.09645 97.5347 1.03481 94.2896 1C89.0055 1.05221 84.639 4.25453 83.1438 9.17984C81.7506 13.7745 83.0419 18.9434 86.355 22.0065C88.4788 23.9732 91.4012 24.9826 94.3235 24.9826C96.6682 24.9826 99.0129 24.3387 100.95 23.016C104.62 20.5272 106.591 15.6715 105.843 10.9376ZM104.416 14.8709C104.042 17.1508 102.989 19.2393 101.477 20.736C99.1998 22.9811 96.3114 23.4859 94.2896 23.5033C89.5152 23.4511 85.7604 20.6664 84.4691 16.2284C83.3137 12.2777 84.4011 7.80493 87.1706 5.12473C89.0395 3.31472 91.673 2.37491 94.3066 2.37491C96.3284 2.37491 98.3673 2.93183 100.083 4.06309C103.396 6.25598 105.129 10.607 104.416 14.8709Z" fill="white" stroke="white" stroke-width="0.2"/>
    <path d="M24.3228 14.4876C24.3228 14.4702 24.3228 14.4702 24.3228 14.4876V14.4354C24.8495 9.87554 22.9976 5.50716 19.5315 3.05321C19.4635 3.001 19.3786 2.98359 19.2936 3.001C19.2087 3.0184 19.1237 3.08802 19.0728 3.15763L18.682 3.83639C18.597 3.99302 18.648 4.16706 18.7839 4.27148C21.7912 6.42957 23.3374 10.2932 22.8277 14.3483C22.3179 18.3687 19.9902 21.5536 16.5752 22.8589C13.0072 24.2164 8.55566 23.4332 5.75223 20.9618C3.44153 18.8908 2.20123 15.6014 2.45608 12.1903C2.79589 7.59563 5.8032 3.76677 9.94888 2.68773C10.1188 2.65292 10.2037 2.47888 10.1867 2.30484L10.0338 1.52167C10.0168 1.43465 9.96587 1.36503 9.89791 1.33022C9.81295 1.27801 9.728 1.26061 9.64305 1.27801C6.49981 2.07859 3.91726 4.20187 2.38812 7.28236C0.740046 10.5717 0.553151 14.3658 1.86142 17.7073C3.05075 20.753 5.59932 23.1373 8.86149 24.286C10.2207 24.7559 11.597 24.9995 12.9562 24.9995C15.029 24.9995 17.0339 24.46 18.7839 23.3984C21.7572 21.5884 23.8301 18.2642 24.3228 14.4876Z" fill="white" stroke="white" stroke-width="0.2"/>
    <path d="M25.4952 4.23755C23.7792 2.58418 21.4685 1.50513 18.784 1.12225H18.767H18.733C14.3665 0.582725 10.4587 2.16648 8.01206 5.45582C5.65039 8.62333 4.9198 12.9917 6.09214 16.8554C6.83972 19.3093 8.33488 21.3804 10.3907 22.8597C10.4587 22.912 10.5436 22.9294 10.6286 22.912C10.7135 22.8945 10.7985 22.8423 10.8495 22.7553L11.2402 22.0766C11.3252 21.9199 11.2912 21.7459 11.1383 21.6415C8.131 19.4486 6.60185 15.5849 7.11157 11.5298C7.62128 7.50948 9.98296 4.34197 13.398 3.05408C16.966 1.69658 21.4175 2.49716 24.204 5.00332C26.5317 7.09179 27.772 10.3637 27.5001 13.7923C27.1433 18.3869 24.119 22.1984 19.9733 23.26C19.8034 23.2948 19.7185 23.4689 19.7355 23.6429L19.8714 24.4087C19.8884 24.4957 19.9394 24.5653 20.0073 24.6001C20.0583 24.6349 20.1263 24.6523 20.1942 24.6523C20.2282 24.6523 20.2452 24.6523 20.2622 24.6349C24.2719 23.6255 27.3472 20.4232 28.4856 16.0548C29.6409 11.6864 28.4856 7.16141 25.4952 4.23755Z" fill="white" stroke="white" stroke-width="0.2"/>
</svg>
