<svg class="" width="108" height="32" viewBox="0 0 108 32" fill="none" xmlns="http://www.w3.org/2000/svg"><path d="M32.1287 0C32.1287 0.764052 31.9776 1.52062 31.684 2.22652C31.3905 2.93241 30.9602 3.5738 30.4177 4.11406C29.8753 4.65433 29.2313 5.08289 28.5226 5.37528C27.8139 5.66767 27.0542 5.81816 26.2871 5.81816L5.45511e-05 5.8188C5.46181e-05 5.05475 0.151152 4.29817 0.444718 3.59228C0.738284 2.88639 1.16857 2.245 1.71101 1.70473C2.25345 1.16447 2.89742 0.735906 3.60615 0.443516C4.31486 0.151134 5.07445 0.000643707 5.84155 0.000634827L32.1287 0Z" fill="#FFE01B"></path><path d="M93.4651 18.9089C93.4651 19.673 93.314 20.4296 93.0204 21.1354C92.7269 21.8413 92.2966 22.4827 91.7542 23.023C91.2117 23.5633 90.5677 23.9918 89.859 24.2842C89.1503 24.5766 88.3907 24.7271 87.6235 24.7271H83.8349L83.1371 27.3207C83.1238 27.3768 83.1097 27.4327 83.0947 27.4885C83.0797 27.5442 83.0639 27.5997 83.0472 27.6549L82.9833 27.8925L82.9712 27.8893C82.7664 28.4771 82.468 29.0294 82.0866 29.5245C81.6196 30.1306 81.0373 30.6393 80.373 31.0213C79.7086 31.4033 78.9752 31.6513 78.2146 31.751C77.4541 31.8507 76.6813 31.8003 75.9403 31.6025L78.9641 20.3627L78.9703 20.3644L82.8865 5.80736C82.2411 5.76813 81.6058 5.62238 81.0069 5.37528C80.2982 5.08289 79.6542 4.65433 79.1117 4.11406C78.5693 3.5738 78.139 2.93241 77.8455 2.22651C77.5519 1.52062 77.4008 0.764052 77.4008 0H94.9255C95.6926 1.07431e-05 96.4522 0.151137 97.1609 0.443517C97.8696 0.735907 98.5136 1.16447 99.056 1.70474C99.5985 2.245 100.029 2.88639 100.322 3.59228C100.377 3.72351 100.427 3.85648 100.471 3.99093L100.559 3.96747L104.97 20.3643L104.976 20.3627L108 31.6025C107.259 31.8003 106.486 31.8507 105.726 31.751C104.965 31.6513 104.232 31.4033 103.567 31.0213C102.903 30.6393 102.321 30.1306 101.854 29.5245C101.472 29.0294 101.174 28.4772 100.969 27.8894L100.957 27.8925L100.897 27.6666C100.879 27.6075 100.862 27.5481 100.846 27.4885C100.83 27.4288 100.814 27.3689 100.8 27.3088L95.0189 5.8188L89.0839 5.8188L88.9219 5.81816L85.4001 18.9089H93.4651Z" fill="#FFE01B"></path><path d="M43.8117 26.1815V18.9537L43.8119 18.9083C43.8119 18.1442 43.6608 17.3877 43.3672 16.6818C43.0736 15.9759 42.6433 15.3345 42.1009 14.7942C41.5585 14.254 40.9145 13.8254 40.2058 13.533C39.497 13.2406 38.7374 13.0901 37.9703 13.0901L37.9701 26.1816C37.9701 26.9457 38.1213 27.7025 38.4149 28.4084C38.7084 29.1142 39.1387 29.7556 39.6812 30.2959C40.2236 30.8362 40.8676 31.2647 41.5763 31.5571C42.285 31.8495 43.0447 32 43.8118 32C43.833 32 43.8542 31.9999 43.8753 31.9997H64.2572C65.0243 31.9997 65.784 31.8492 66.4927 31.5568C67.2015 31.2644 67.8454 30.8358 68.3879 30.2956C68.9303 29.7553 69.3606 29.1139 69.6542 28.408C69.9477 27.7021 70.0988 26.9455 70.0988 26.1815L70.0987 5.8188C70.0987 5.05475 69.9476 4.29818 69.654 3.59228C69.3604 2.88639 68.9302 2.245 68.3877 1.70474C67.8453 1.16447 67.2013 0.735907 66.4926 0.443517C65.7839 0.151134 65.0243 0.00064291 64.2572 0.000634827L37.9703 0C37.9703 0.764052 38.1214 1.52062 38.415 2.22651C38.7085 2.93241 39.1388 3.5738 39.6812 4.11406C40.2237 4.65433 40.8677 5.08289 41.5764 5.37528C42.2851 5.66765 43.0446 5.81814 43.8117 5.81816L64.2571 5.8188V26.1815H43.8117Z" fill="#FFE01B"></path><path d="M5.84155 13.0909H0C0 13.8549 0.151096 14.6115 0.444663 15.3174C0.738229 16.0233 1.16852 16.6647 1.71095 17.2049C2.25339 17.7452 2.89736 18.1738 3.6061 18.4662C4.31483 18.7586 5.07444 18.909 5.84157 18.909C5.87284 18.909 5.9041 18.9088 5.93535 18.9083H26.287L26.2871 26.181L0 26.1818C0 26.9459 0.151096 27.7025 0.444663 28.4084C0.738229 29.1142 1.16852 29.7556 1.71095 30.2959C2.25339 30.8362 2.89736 31.2647 3.6061 31.5571C4.31483 31.8495 5.07444 32 5.84157 32C5.86276 32 5.88395 31.9999 5.90513 31.9997H26.287C26.691 31.9997 27.0929 31.9565 27.4862 31.8742C27.8399 31.8003 28.1871 31.6952 28.5226 31.556C29.2314 31.2634 29.8753 30.8344 30.4176 30.2946C30.9603 29.7549 31.3903 29.1128 31.6841 28.4083C31.9775 27.7009 32.1287 26.9452 32.1287 26.181V18.9083C32.1287 18.1441 31.9775 17.3884 31.6841 16.681C31.3903 15.9765 30.9603 15.3344 30.4176 14.7947C29.9762 14.3543 29.4675 13.9879 28.9116 13.7094C28.7843 13.6469 28.6546 13.5873 28.5226 13.5333C27.8138 13.2407 27.0544 13.0901 26.2871 13.0901H5.84155V13.0909Z" fill="#FFE01B"></path></svg>